<?xml version="1.0" encoding="UTF-8" standalone="no"?>
<!-- Created with Inkscape (http://www.inkscape.org/) -->

<svg
   xmlns:dc="http://purl.org/dc/elements/1.1/"
   xmlns:cc="http://creativecommons.org/ns#"
   xmlns:rdf="http://www.w3.org/1999/02/22-rdf-syntax-ns#"
   xmlns:svg="http://www.w3.org/2000/svg"
   xmlns="http://www.w3.org/2000/svg"
   xmlns:sodipodi="http://sodipodi.sourceforge.net/DTD/sodipodi-0.dtd"
   xmlns:inkscape="http://www.inkscape.org/namespaces/inkscape"
   width="512"
   height="512"
   id="svg8396"
   version="1.1"
   inkscape:version="0.48.2 r9819"
   sodipodi:docname="shop_dark.svg"
   inkscape:export-filename="C:\Users\boutell\git\GroceryDroid\Artwork\shop_dark.png"
   inkscape:export-xdpi="90"
   inkscape:export-ydpi="90">
  <defs
     id="defs8398" />
  <sodipodi:namedview
     id="base"
     pagecolor="#ffffff"
     bordercolor="#666666"
     borderopacity="1.0"
     inkscape:pageopacity="0.0"
     inkscape:pageshadow="2"
     inkscape:zoom="1.4"
     inkscape:cx="346.82566"
     inkscape:cy="255.2099"
     inkscape:document-units="px"
     inkscape:current-layer="layer1"
     showgrid="false"
     inkscape:window-width="1680"
     inkscape:window-height="988"
     inkscape:window-x="-8"
     inkscape:window-y="-8"
     inkscape:window-maximized="1" />
  <metadata
     id="metadata8401">
    <rdf:RDF>
      <cc:Work
         rdf:about="">
        <dc:format>image/svg+xml</dc:format>
        <dc:type
           rdf:resource="http://purl.org/dc/dcmitype/StillImage" />
        <dc:title></dc:title>
      </cc:Work>
    </rdf:RDF>
  </metadata>
  <g
     inkscape:label="Layer 1"
     inkscape:groupmode="layer"
     id="layer1"
     transform="translate(0,-540.36218)">
    <path
       style="fill:none;stroke:#333333;stroke-width:36.04549789000000000;stroke-linecap:round;stroke-linejoin:round;stroke-miterlimit:4;stroke-opacity:1;stroke-dasharray:none;fill-opacity:0.80423277999999998"
       d="m 48.165606,653.81351 c 54.474374,0 55.230974,0 55.230974,0 55.98755,187.38307 55.98755,187.38307 55.98755,187.38307 265.56258,0 264.806,0 264.806,0 37.07284,-146.31282 37.07284,-146.31282 37.07284,-146.31282"
       id="path8404"
       inkscape:connector-curvature="0" />
    <path
       sodipodi:type="arc"
       style="fill:#333333;fill-opacity:1;stroke:#333333;stroke-width:32;stroke-linecap:round;stroke-linejoin:round;stroke-miterlimit:4;stroke-opacity:1;stroke-dasharray:none"
       id="path8408"
       sodipodi:cx="201.42857"
       sodipodi:cy="364.85715"
       sodipodi:rx="40.714287"
       sodipodi:ry="40.714287"
       d="m 242.14286,364.85715 c 0,22.48588 -18.22841,40.71428 -40.71429,40.71428 -22.48588,0 -40.71428,-18.2284 -40.71428,-40.71428 0,-22.48588 18.2284,-40.71429 40.71428,-40.71429 22.48588,0 40.71429,18.22841 40.71429,40.71429 z"
       transform="matrix(0.31033865,-0.49521662,0.49521662,0.31033865,122.80557,888.7408)" />
    <path
       sodipodi:type="arc"
       style="fill:#333333;fill-opacity:1;stroke:#333333;stroke-width:32;stroke-linecap:round;stroke-linejoin:round;stroke-miterlimit:4;stroke-opacity:1;stroke-dasharray:none"
       id="path8408-8"
       sodipodi:cx="201.42857"
       sodipodi:cy="364.85715"
       sodipodi:rx="40.714287"
       sodipodi:ry="40.714287"
       d="m 242.14286,364.85715 c 0,22.48588 -18.22841,40.71428 -40.71429,40.71428 -22.48588,0 -40.71428,-18.2284 -40.71428,-40.71428 0,-22.48588 18.2284,-40.71429 40.71428,-40.71429 22.48588,0 40.71429,18.22841 40.71429,40.71429 z"
       transform="matrix(0.31033865,-0.49521662,0.49521662,0.31033865,-27.194395,890.1694)" />
  </g>
</svg>
